<?xml version="1.0" encoding="UTF-8" standalone="no"?>
<svg
   width="600"
   height="315"
   version="1.1"
   id="svg8"
   sodipodi:docname="app-level-events.svg"
   xml:space="preserve"
   inkscape:version="1.4.2 (ebf0e940, 2025-05-08)"
   xmlns:inkscape="http://www.inkscape.org/namespaces/inkscape"
   xmlns:sodipodi="http://sodipodi.sourceforge.net/DTD/sodipodi-0.dtd"
   xmlns="http://www.w3.org/2000/svg"
   xmlns:svg="http://www.w3.org/2000/svg"><sodipodi:namedview
     id="namedview8"
     pagecolor="#ffffff"
     bordercolor="#000000"
     borderopacity="0.25"
     inkscape:showpageshadow="2"
     inkscape:pageopacity="0.0"
     inkscape:pagecheckerboard="0"
     inkscape:deskcolor="#d1d1d1"
     inkscape:zoom="0.38032885"
     inkscape:cx="326.03364"
     inkscape:cy="51.271419"
     inkscape:window-width="1288"
     inkscape:window-height="746"
     inkscape:window-x="0"
     inkscape:window-y="71"
     inkscape:window-maximized="0"
     inkscape:current-layer="svg8" /><!-- Definitions for arrowheads --><defs
     id="defs1"><marker
       style="overflow:visible"
       id="Triangle"
       refX="0"
       refY="0"
       orient="auto-start-reverse"
       inkscape:stockid="Triangle arrow"
       markerWidth="1"
       markerHeight="1"
       viewBox="0 0 1 1"
       inkscape:isstock="true"
       inkscape:collect="always"
       preserveAspectRatio="xMidYMid"><path
         transform="scale(0.5)"
         style="fill:context-stroke;fill-rule:evenodd;stroke:context-stroke;stroke-width:1pt"
         d="M 5.77,0 -2.88,5 V -5 Z"
         id="path135" /></marker><marker
       id="arrowhead"
       markerWidth="20"
       markerHeight="13.333333"
       refX="12"
       refY="4"
       orient="auto"
       markerUnits="userSpaceOnUse"
       viewBox="0 0 12 8"
       preserveAspectRatio="xMidYMid"><polygon
         points="0,0 12,4 0,8 "
         fill="#4a4a4a"
         id="polygon1" /></marker><marker
       id="arrowhead-7"
       markerWidth="12"
       markerHeight="8"
       refX="12"
       refY="4"
       orient="auto"
       markerUnits="userSpaceOnUse"
       viewBox="0 0 12 8"
       preserveAspectRatio="xMidYMid"><polygon
         points="12,4 0,8 0,0 "
         fill="#4a4a4a"
         id="polygon1-9" /></marker><inkscape:path-effect
       effect="spiro"
       id="path-effect25"
       is_visible="true"
       lpeversion="1" /><marker
       id="arrowhead-78"
       markerWidth="12"
       markerHeight="8"
       refX="12"
       refY="4"
       orient="auto"
       markerUnits="userSpaceOnUse"
       viewBox="0 0 12 8"
       preserveAspectRatio="xMidYMid"><polygon
         points="0,8 0,0 12,4 "
         fill="#4a4a4a"
         id="polygon1-0" /></marker><marker
       id="arrowhead-2"
       markerWidth="12"
       markerHeight="8"
       refX="12"
       refY="4"
       orient="auto"
       markerUnits="userSpaceOnUse"
       viewBox="0 0 12 8"
       preserveAspectRatio="xMidYMid"><polygon
         points="0,0 12,4 0,8 "
         fill="#4a4a4a"
         id="polygon1-6" /></marker><marker
       id="arrowhead-2-0"
       markerWidth="12"
       markerHeight="8"
       refX="12"
       refY="4"
       orient="auto"
       markerUnits="userSpaceOnUse"
       viewBox="0 0 12 8"
       preserveAspectRatio="xMidYMid"><polygon
         points="12,4 0,8 0,0 "
         fill="#4a4a4a"
         id="polygon1-6-6" /></marker><marker
       id="arrowhead-29"
       markerWidth="20"
       markerHeight="13.333333"
       refX="12"
       refY="4"
       orient="auto"
       markerUnits="userSpaceOnUse"
       viewBox="0 0 12 8"
       preserveAspectRatio="xMidYMid"><polygon
         points="12,4 0,8 0,0 "
         fill="#4a4a4a"
         id="polygon1-7" /></marker><marker
       id="arrowhead-0"
       markerWidth="12"
       markerHeight="8"
       refX="12"
       refY="4"
       orient="auto"
       markerUnits="userSpaceOnUse"><polygon
         points="12,4 0,8 0,0 "
         fill="#4a4a4a"
         id="polygon1-3" /></marker></defs><!-- Background --><!-- Write operations --><!-- Legacy System --><rect
     x="33.915699"
     y="48.22776"
     width="146.76105"
     height="101.52064"
     rx="6.138"
     fill="#f9f9f9"
     stroke="#999999"
     stroke-width="1.52579"
     id="rect4"
     style="stroke-width:2.5;stroke-dasharray:none" /><!-- New System --><!-- Bi-directional sync arrows --><line
     x1="180.67674"
     y1="98.988083"
     x2="409.67737"
     y2="98.988083"
     stroke="#4a4a4a"
     stroke-width="3.08964"
     stroke-dasharray="5, 3"
     marker-end="url(#arrowhead-29)"
     id="line5-8"
     style="mix-blend-mode:normal;stroke-width:3.02644;stroke-linecap:butt;stroke-linejoin:miter;stroke-miterlimit:0;stroke-dasharray:7.5661, 6.05288;stroke-dashoffset:0;marker-end:url(#Triangle);paint-order:markers fill stroke" /><!-- Sync components --><g
     id="g12"
     transform="translate(-1.0430565,-0.05282974)"><rect
       x="250.47246"
       y="21.745291"
       width="101.1412"
       height="50.570599"
       rx="0"
       fill="#f8f4e8"
       id="rect6"
       style="fill:#feedbc;fill-opacity:1;stroke-width:1.68569" /><text
       x="300.42575"
       y="48.754135"
       text-anchor="middle"
       dominant-baseline="middle"
       font-family="Inter, '-apple-system', BlinkMacSystemFont, 'Segoe UI', Roboto, sans-serif"
       font-size="20.2282px"
       font-weight="500"
       fill="#cc8400"
       id="text6"
       style="stroke-width:1.68569">Event</text></g><!-- Arrows --><!-- Write to Legacy --><!-- Write to New --><rect
     x="421.40936"
     y="48.280594"
     width="147.31799"
     height="101.41498"
     rx="6.1382313"
     fill="#fafafe"
     stroke="#7b2cbf"
     stroke-width="2.64636"
     id="rect3"
     style="stroke-width:2.5;stroke-dasharray:none" /><text
     x="494.37805"
     y="108.53888"
     text-anchor="middle"
     font-family="Inter, '-apple-system', BlinkMacSystemFont, 'Segoe UI', Roboto, sans-serif"
     font-size="20px"
     font-weight="600"
     letter-spacing="0.5px"
     fill="#7b2cbf"
     id="text17-3"
     style="font-style:normal;font-variant:normal;font-weight:600;font-stretch:normal;font-size:24px;font-family:Inter, '-apple-system', BlinkMacSystemFont, 'Segoe UI', Roboto, sans-serif;-inkscape-font-specification:'Inter, -apple-system, BlinkMacSystemFont, Segoe UI, Roboto, sans-serif, Semi-Bold';font-variant-ligatures:normal;font-variant-caps:normal;font-variant-numeric:normal;font-variant-east-asian:normal;letter-spacing:0.5px;text-anchor:middle;fill:#7b2cbf"><tspan
       style="font-style:normal;font-variant:normal;font-weight:600;font-stretch:normal;font-size:24px;font-family:Inter, '-apple-system', BlinkMacSystemFont, 'Segoe UI', Roboto, sans-serif;-inkscape-font-specification:'Inter, -apple-system, BlinkMacSystemFont, Segoe UI, Roboto, sans-serif, Semi-Bold';font-variant-ligatures:normal;font-variant-caps:normal;font-variant-numeric:normal;font-variant-east-asian:normal"
       id="tspan12">New</tspan></text><text
     x="106.5013"
     y="106.49329"
     text-anchor="middle"
     font-family="Inter, '-apple-system', BlinkMacSystemFont, 'Segoe UI', Roboto, sans-serif"
     font-size="20px"
     font-weight="600"
     letter-spacing="0.5px"
     fill="#7b2cbf"
     id="text17-3-7"
     style="font-style:normal;font-variant:normal;font-weight:600;font-stretch:normal;font-size:24px;line-height:normal;font-family:Inter, '-apple-system', BlinkMacSystemFont, 'Segoe UI', Roboto, sans-serif;-inkscape-font-specification:'Inter, -apple-system, BlinkMacSystemFont, Segoe UI, Roboto, sans-serif, Semi-Bold';font-variant-ligatures:normal;font-variant-position:normal;font-variant-caps:normal;font-variant-numeric:normal;font-variant-alternates:normal;font-variant-east-asian:normal;text-indent:0;text-align:start;text-decoration-line:none;text-decoration-style:solid;text-decoration-color:#000000;letter-spacing:normal;word-spacing:normal;text-transform:none;writing-mode:lr-tb;direction:ltr;text-orientation:mixed;dominant-baseline:auto;baseline-shift:baseline;text-anchor:middle;white-space:normal;opacity:1;vector-effect:none;fill:#666666;fill-opacity:1;stroke-width:1;stroke-linecap:butt;stroke-linejoin:miter;stroke-miterlimit:4;stroke-dasharray:none;stroke-dashoffset:0;stroke-opacity:1;-inkscape-stroke:none;stop-color:#000000;stop-opacity:1"><tspan
       style="font-style:normal;font-variant:normal;font-weight:600;font-stretch:normal;font-size:24px;line-height:normal;font-family:Inter, '-apple-system', BlinkMacSystemFont, 'Segoe UI', Roboto, sans-serif;-inkscape-font-specification:'Inter, -apple-system, BlinkMacSystemFont, Segoe UI, Roboto, sans-serif, Semi-Bold';font-variant-ligatures:normal;font-variant-position:normal;font-variant-caps:normal;font-variant-numeric:normal;font-variant-alternates:normal;font-variant-east-asian:normal;text-indent:0;text-align:start;text-decoration-line:none;text-decoration-style:solid;text-decoration-color:#000000;letter-spacing:normal;word-spacing:normal;text-transform:none;writing-mode:lr-tb;direction:ltr;text-orientation:mixed;dominant-baseline:auto;baseline-shift:baseline;white-space:normal;vector-effect:none;fill:#666666;fill-opacity:1;stroke-width:1;stroke-linecap:butt;stroke-linejoin:miter;stroke-miterlimit:4;stroke-dasharray:none;stroke-dashoffset:0;stroke-opacity:1;-inkscape-stroke:none;stop-color:#000000;stop-opacity:1"
       id="tspan12-5">Legacy</tspan></text><path
     style="fill:#333333;fill-opacity:1;stroke:#a2a2a2;stroke-width:3.499;stroke-linecap:butt;stroke-linejoin:miter;stroke-miterlimit:4;stroke-dasharray:none;stroke-dashoffset:0;stroke-opacity:0"
     d="m 193.45712,135.51772 96.96402,0.76719"
     id="path25"
     inkscape:path-effect="#path-effect25"
     inkscape:original-d="m 193.45712,135.51772 c 29.17452,0.76718 63.06927,0.76719 96.96402,0.76719"
     transform="translate(-62.14908,454.05661)" /><path
     style="font-variation-settings:normal;fill:#8137c3;fill-opacity:1;stroke:#8238c3;stroke-width:1.677;stroke-linecap:butt;stroke-linejoin:miter;stroke-miterlimit:8.6;stroke-dasharray:4.1925, 2.5155;stroke-dashoffset:0;stroke-opacity:1"
     d="m 495.06813,149.69558 1e-5,59.58585"
     id="path26"
     sodipodi:nodetypes="cc" /><path
     style="font-variation-settings:normal;opacity:1;mix-blend-mode:darken;vector-effect:none;fill:#4d4d4d;fill-opacity:1;stroke:#666666;stroke-width:1.677;stroke-linecap:butt;stroke-linejoin:miter;stroke-miterlimit:8.6;stroke-dasharray:4.1925, 2.5155;stroke-dashoffset:0;stroke-opacity:1;-inkscape-stroke:none;stop-color:#000000;stop-opacity:1"
     d="m 107.29621,150.5809 1e-5,59.58585"
     id="path26-4"
     sodipodi:nodetypes="cc" /><g
     style="fill:#000000"
     id="g28"
     transform="matrix(1.7996625,0,0,1.5690123,54.504846,200.37234)"><path
       d="m 54.188041,12.498416 c -1.158,-4.2899998 -9.777,-8.5099998 -24.854,-8.5099998 -15.077,0 -23.697,4.22 -24.854,8.5099998 -0.084,0.147 -0.146,0.308 -0.146,0.49 v 0.5 11.5 0.5 0.5 11 0.5 0.5 12 c 0,0.162 0.043,0.315 0.117,0.451 1.181,4.895 11.747,8.549 24.883,8.549 13.106,0 23.655,-3.639 24.875,-8.516 0.08,-0.143 0.125,-0.308 0.125,-0.484 v -12 -0.5 -0.5 -11 -0.5 -0.5 -11.5 -0.5 c 0,-0.182 -0.062,-0.343 -0.146,-0.49 z m -1.933,25.475 c -0.028,0.121 -0.067,0.241 -0.116,0.363 -0.04,0.099 -0.089,0.198 -0.143,0.297 -0.067,0.123 -0.142,0.246 -0.231,0.369 -0.066,0.093 -0.141,0.185 -0.219,0.277 -0.111,0.131 -0.229,0.262 -0.363,0.392 -0.081,0.079 -0.17,0.157 -0.26,0.236 -0.164,0.143 -0.335,0.285 -0.526,0.426 -0.082,0.061 -0.17,0.12 -0.257,0.18 -0.226,0.156 -0.462,0.311 -0.721,0.463 -0.068,0.041 -0.141,0.08 -0.212,0.12 -0.298,0.168 -0.609,0.335 -0.945,0.497 -0.043,0.021 -0.088,0.041 -0.132,0.061 -0.375,0.177 -0.767,0.351 -1.186,0.519 -0.012,0.005 -0.024,0.009 -0.036,0.014 -2.271,0.907 -5.176,1.67 -8.561,2.17 -0.017,0.002 -0.034,0.004 -0.051,0.007 -0.658,0.097 -1.333,0.183 -2.026,0.259 -0.113,0.012 -0.232,0.02 -0.346,0.032 -0.605,0.063 -1.217,0.121 -1.847,0.167 -0.288,0.021 -0.59,0.031 -0.883,0.049 -0.474,0.028 -0.943,0.059 -1.429,0.076 -0.794,0.025 -1.604,0.041 -2.431,0.041 -0.827,0 -1.637,-0.016 -2.432,-0.044 -0.486,-0.017 -0.955,-0.049 -1.429,-0.076 -0.293,-0.017 -0.595,-0.028 -0.883,-0.049 -0.63,-0.046 -1.242,-0.104 -1.847,-0.167 -0.114,-0.012 -0.233,-0.02 -0.346,-0.032 -0.693,-0.076 -1.368,-0.163 -2.026,-0.259 -0.017,-0.002 -0.034,-0.004 -0.051,-0.007 -3.385,-0.5 -6.29,-1.263 -8.561,-2.17 -0.012,-0.004 -0.024,-0.009 -0.036,-0.014 -0.419,-0.168 -0.812,-0.342 -1.186,-0.519 -0.043,-0.021 -0.089,-0.041 -0.132,-0.061 -0.336,-0.162 -0.647,-0.328 -0.945,-0.497 -0.07,-0.04 -0.144,-0.079 -0.212,-0.12 -0.259,-0.152 -0.495,-0.307 -0.721,-0.463 -0.086,-0.06 -0.175,-0.119 -0.257,-0.18 -0.191,-0.141 -0.362,-0.283 -0.526,-0.426 -0.089,-0.078 -0.179,-0.156 -0.26,-0.236 -0.134,-0.13 -0.252,-0.26 -0.363,-0.392 -0.078,-0.092 -0.153,-0.184 -0.219,-0.277 -0.088,-0.123 -0.163,-0.246 -0.231,-0.369 -0.054,-0.099 -0.102,-0.198 -0.143,-0.297 -0.049,-0.121 -0.088,-0.242 -0.116,-0.363 -0.037,-0.159 -0.078,-0.321 -0.078,-0.482 0,-0.113 0.013,-0.226 0.031,-0.338 0.025,-0.151 0.011,-0.302 -0.031,-0.445 v -7.424 c 0.028,0.026 0.063,0.051 0.092,0.077 0.218,0.192 0.44,0.383 0.69,0.567 3.767,2.849 11.3,5.063 22.218,5.063 10.872,0 18.386,-2.196 22.169,-5.028 0.302,-0.22 0.574,-0.447 0.83,-0.678 l 10e-4,-0.001 v 7.424 c -0.042,0.143 -0.056,0.294 -0.031,0.445 0.019,0.112 0.031,0.225 0.031,0.338 0,0.161 -0.041,0.323 -0.079,0.485 z m 0.079,-20.692 v 7.424 c -0.042,0.143 -0.056,0.294 -0.031,0.445 0.019,0.112 0.031,0.225 0.031,0.338 0,0.161 -0.041,0.323 -0.079,0.485 -0.028,0.121 -0.067,0.241 -0.116,0.363 -0.04,0.099 -0.089,0.198 -0.143,0.297 -0.067,0.123 -0.142,0.246 -0.231,0.369 -0.066,0.093 -0.141,0.185 -0.219,0.277 -0.111,0.131 -0.229,0.262 -0.363,0.392 -0.081,0.079 -0.17,0.157 -0.26,0.236 -0.164,0.143 -0.335,0.285 -0.526,0.426 -0.082,0.061 -0.17,0.12 -0.257,0.18 -0.226,0.156 -0.462,0.311 -0.721,0.463 -0.068,0.041 -0.141,0.08 -0.212,0.12 -0.298,0.168 -0.609,0.335 -0.945,0.497 -0.043,0.021 -0.088,0.041 -0.132,0.061 -0.375,0.177 -0.767,0.351 -1.186,0.519 -0.012,0.005 -0.024,0.009 -0.036,0.014 -2.271,0.907 -5.176,1.67 -8.561,2.17 -0.017,0.002 -0.034,0.004 -0.051,0.007 -0.658,0.097 -1.333,0.183 -2.026,0.259 -0.113,0.012 -0.232,0.02 -0.346,0.032 -0.605,0.063 -1.217,0.121 -1.847,0.167 -0.288,0.021 -0.59,0.031 -0.883,0.049 -0.474,0.028 -0.943,0.059 -1.429,0.076 -0.794,0.025 -1.604,0.041 -2.431,0.041 -0.827,0 -1.637,-0.016 -2.432,-0.044 -0.486,-0.017 -0.955,-0.049 -1.429,-0.076 -0.293,-0.017 -0.595,-0.028 -0.883,-0.049 -0.63,-0.046 -1.242,-0.104 -1.847,-0.167 -0.114,-0.012 -0.233,-0.02 -0.346,-0.032 -0.693,-0.076 -1.368,-0.163 -2.026,-0.259 -0.017,-0.002 -0.034,-0.004 -0.051,-0.007 -3.385,-0.5 -6.29,-1.263 -8.561,-2.17 -0.012,-0.004 -0.024,-0.009 -0.036,-0.014 -0.419,-0.168 -0.812,-0.342 -1.186,-0.519 -0.043,-0.021 -0.089,-0.041 -0.132,-0.061 -0.336,-0.162 -0.647,-0.328 -0.945,-0.497 -0.07,-0.04 -0.144,-0.079 -0.212,-0.12 -0.259,-0.152 -0.495,-0.307 -0.721,-0.463 -0.086,-0.06 -0.175,-0.119 -0.257,-0.18 -0.191,-0.141 -0.362,-0.283 -0.526,-0.426 -0.089,-0.078 -0.179,-0.156 -0.26,-0.236 -0.134,-0.13 -0.252,-0.26 -0.363,-0.392 -0.078,-0.092 -0.153,-0.184 -0.219,-0.277 -0.088,-0.123 -0.163,-0.246 -0.231,-0.369 -0.054,-0.099 -0.102,-0.198 -0.143,-0.297 -0.049,-0.121 -0.088,-0.242 -0.116,-0.363 -0.037,-0.159 -0.078,-0.321 -0.078,-0.482 0,-0.113 0.013,-0.226 0.031,-0.338 0.025,-0.151 0.011,-0.302 -0.031,-0.445 v -7.424 c 0.12,0.109 0.257,0.216 0.387,0.324 0.072,0.06 0.139,0.12 0.215,0.18 0.3,0.236 0.624,0.469 0.975,0.696 0.073,0.047 0.155,0.093 0.231,0.14 0.294,0.183 0.605,0.362 0.932,0.538 0.121,0.065 0.242,0.129 0.367,0.193 0.365,0.186 0.748,0.367 1.151,0.542 0.066,0.029 0.126,0.059 0.193,0.087 0.469,0.199 0.967,0.389 1.485,0.573 0.143,0.051 0.293,0.099 0.44,0.149 0.412,0.139 0.838,0.272 1.279,0.401 0.159,0.046 0.315,0.094 0.478,0.138 0.585,0.162 1.189,0.316 1.823,0.458 0.087,0.02 0.181,0.036 0.269,0.055 0.559,0.122 1.139,0.235 1.735,0.341 0.202,0.036 0.407,0.07 0.613,0.104 0.567,0.093 1.151,0.178 1.75,0.256 0.154,0.02 0.301,0.043 0.457,0.062 0.744,0.09 1.514,0.167 2.305,0.233 0.195,0.016 0.398,0.028 0.596,0.042 0.633,0.046 1.28,0.084 1.942,0.114 0.241,0.011 0.481,0.022 0.727,0.031 0.862,0.029 1.74,0.05 2.65,0.05 0.91,0 1.788,-0.021 2.65,-0.05 0.245,-0.009 0.485,-0.02 0.727,-0.031 0.662,-0.03 1.309,-0.068 1.942,-0.114 0.198,-0.015 0.4,-0.026 0.596,-0.042 0.791,-0.065 1.561,-0.143 2.305,-0.233 0.156,-0.019 0.303,-0.042 0.457,-0.062 0.599,-0.078 1.182,-0.163 1.75,-0.256 0.206,-0.034 0.411,-0.068 0.613,-0.104 0.596,-0.106 1.176,-0.219 1.735,-0.341 0.088,-0.019 0.182,-0.036 0.269,-0.055 0.634,-0.142 1.238,-0.297 1.823,-0.458 0.163,-0.045 0.319,-0.092 0.478,-0.138 0.441,-0.129 0.867,-0.262 1.279,-0.401 0.147,-0.05 0.297,-0.098 0.44,-0.149 0.518,-0.184 1.017,-0.374 1.485,-0.573 0.067,-0.028 0.127,-0.058 0.193,-0.087 0.403,-0.176 0.786,-0.356 1.151,-0.542 0.125,-0.064 0.247,-0.128 0.367,-0.193 0.327,-0.175 0.638,-0.354 0.932,-0.538 0.076,-0.047 0.158,-0.093 0.231,-0.14 0.351,-0.227 0.675,-0.459 0.975,-0.696 0.075,-0.06 0.142,-0.12 0.215,-0.18 0.13,-0.108 0.267,-0.215 0.387,-0.324 z m -23,-11.2929998 c 13.555,0 23,3.952 23,7.4999998 0,3.548 -9.445,7.5 -23,7.5 -13.555,0 -23,-3.952 -23,-7.5 0,-3.5479998 9.445,-7.4999998 23,-7.4999998 z m 23,43.7029998 c -0.014,0.044 -0.024,0.089 -0.032,0.135 -0.567,3.459 -9.932,7.162 -22.968,7.162 -13.036,0 -22.401,-3.703 -22.968,-7.162 -0.008,-0.045 -0.019,-0.089 -0.032,-0.131 v -8.414 c 0.028,0.026 0.063,0.051 0.092,0.077 0.218,0.192 0.44,0.383 0.69,0.567 3.767,2.849 11.3,5.063 22.218,5.063 10.872,0 18.386,-2.196 22.169,-5.028 0.302,-0.22 0.574,-0.447 0.83,-0.678 l 10e-4,-10e-4 z"
       id="path28"
       style="fill:#666666;fill-opacity:1;stroke-width:1.00005;stroke-dasharray:none" /></g><g
     style="font-variation-settings:normal;fill:#8238c3;fill-opacity:1;stroke:#7b2cbf;stroke-width:0.296262;stroke-linecap:butt;stroke-linejoin:miter;stroke-miterlimit:4;stroke-dasharray:none;stroke-dashoffset:0;stroke-opacity:1;stop-color:#000000"
     id="g28-5-8"
     transform="matrix(1.7935394,0,0,1.5881028,442.45638,199.77121)"><path
       d="m 54.188041,12.498416 c -1.158,-4.2899998 -9.777,-8.5099998 -24.854,-8.5099998 -15.077,0 -23.697,4.22 -24.854,8.5099998 -0.084,0.147 -0.146,0.308 -0.146,0.49 v 0.5 11.5 0.5 0.5 11 0.5 0.5 12 c 0,0.162 0.043,0.315 0.117,0.451 1.181,4.895 11.747,8.549 24.883,8.549 13.106,0 23.655,-3.639 24.875,-8.516 0.08,-0.143 0.125,-0.308 0.125,-0.484 v -12 -0.5 -0.5 -11 -0.5 -0.5 -11.5 -0.5 c 0,-0.182 -0.062,-0.343 -0.146,-0.49 z m -1.933,25.475 c -0.028,0.121 -0.067,0.241 -0.116,0.363 -0.04,0.099 -0.089,0.198 -0.143,0.297 -0.067,0.123 -0.142,0.246 -0.231,0.369 -0.066,0.093 -0.141,0.185 -0.219,0.277 -0.111,0.131 -0.229,0.262 -0.363,0.392 -0.081,0.079 -0.17,0.157 -0.26,0.236 -0.164,0.143 -0.335,0.285 -0.526,0.426 -0.082,0.061 -0.17,0.12 -0.257,0.18 -0.226,0.156 -0.462,0.311 -0.721,0.463 -0.068,0.041 -0.141,0.08 -0.212,0.12 -0.298,0.168 -0.609,0.335 -0.945,0.497 -0.043,0.021 -0.088,0.041 -0.132,0.061 -0.375,0.177 -0.767,0.351 -1.186,0.519 -0.012,0.005 -0.024,0.009 -0.036,0.014 -2.271,0.907 -5.176,1.67 -8.561,2.17 -0.017,0.002 -0.034,0.004 -0.051,0.007 -0.658,0.097 -1.333,0.183 -2.026,0.259 -0.113,0.012 -0.232,0.02 -0.346,0.032 -0.605,0.063 -1.217,0.121 -1.847,0.167 -0.288,0.021 -0.59,0.031 -0.883,0.049 -0.474,0.028 -0.943,0.059 -1.429,0.076 -0.794,0.025 -1.604,0.041 -2.431,0.041 -0.827,0 -1.637,-0.016 -2.432,-0.044 -0.486,-0.017 -0.955,-0.049 -1.429,-0.076 -0.293,-0.017 -0.595,-0.028 -0.883,-0.049 -0.63,-0.046 -1.242,-0.104 -1.847,-0.167 -0.114,-0.012 -0.233,-0.02 -0.346,-0.032 -0.693,-0.076 -1.368,-0.163 -2.026,-0.259 -0.017,-0.002 -0.034,-0.004 -0.051,-0.007 -3.385,-0.5 -6.29,-1.263 -8.561,-2.17 -0.012,-0.004 -0.024,-0.009 -0.036,-0.014 -0.419,-0.168 -0.812,-0.342 -1.186,-0.519 -0.043,-0.021 -0.089,-0.041 -0.132,-0.061 -0.336,-0.162 -0.647,-0.328 -0.945,-0.497 -0.07,-0.04 -0.144,-0.079 -0.212,-0.12 -0.259,-0.152 -0.495,-0.307 -0.721,-0.463 -0.086,-0.06 -0.175,-0.119 -0.257,-0.18 -0.191,-0.141 -0.362,-0.283 -0.526,-0.426 -0.089,-0.078 -0.179,-0.156 -0.26,-0.236 -0.134,-0.13 -0.252,-0.26 -0.363,-0.392 -0.078,-0.092 -0.153,-0.184 -0.219,-0.277 -0.088,-0.123 -0.163,-0.246 -0.231,-0.369 -0.054,-0.099 -0.102,-0.198 -0.143,-0.297 -0.049,-0.121 -0.088,-0.242 -0.116,-0.363 -0.037,-0.159 -0.078,-0.321 -0.078,-0.482 0,-0.113 0.013,-0.226 0.031,-0.338 0.025,-0.151 0.011,-0.302 -0.031,-0.445 v -7.424 c 0.028,0.026 0.063,0.051 0.092,0.077 0.218,0.192 0.44,0.383 0.69,0.567 3.767,2.849 11.3,5.063 22.218,5.063 10.872,0 18.386,-2.196 22.169,-5.028 0.302,-0.22 0.574,-0.447 0.83,-0.678 l 10e-4,-0.001 v 7.424 c -0.042,0.143 -0.056,0.294 -0.031,0.445 0.019,0.112 0.031,0.225 0.031,0.338 0,0.161 -0.041,0.323 -0.079,0.485 z m 0.079,-20.692 v 7.424 c -0.042,0.143 -0.056,0.294 -0.031,0.445 0.019,0.112 0.031,0.225 0.031,0.338 0,0.161 -0.041,0.323 -0.079,0.485 -0.028,0.121 -0.067,0.241 -0.116,0.363 -0.04,0.099 -0.089,0.198 -0.143,0.297 -0.067,0.123 -0.142,0.246 -0.231,0.369 -0.066,0.093 -0.141,0.185 -0.219,0.277 -0.111,0.131 -0.229,0.262 -0.363,0.392 -0.081,0.079 -0.17,0.157 -0.26,0.236 -0.164,0.143 -0.335,0.285 -0.526,0.426 -0.082,0.061 -0.17,0.12 -0.257,0.18 -0.226,0.156 -0.462,0.311 -0.721,0.463 -0.068,0.041 -0.141,0.08 -0.212,0.12 -0.298,0.168 -0.609,0.335 -0.945,0.497 -0.043,0.021 -0.088,0.041 -0.132,0.061 -0.375,0.177 -0.767,0.351 -1.186,0.519 -0.012,0.005 -0.024,0.009 -0.036,0.014 -2.271,0.907 -5.176,1.67 -8.561,2.17 -0.017,0.002 -0.034,0.004 -0.051,0.007 -0.658,0.097 -1.333,0.183 -2.026,0.259 -0.113,0.012 -0.232,0.02 -0.346,0.032 -0.605,0.063 -1.217,0.121 -1.847,0.167 -0.288,0.021 -0.59,0.031 -0.883,0.049 -0.474,0.028 -0.943,0.059 -1.429,0.076 -0.794,0.025 -1.604,0.041 -2.431,0.041 -0.827,0 -1.637,-0.016 -2.432,-0.044 -0.486,-0.017 -0.955,-0.049 -1.429,-0.076 -0.293,-0.017 -0.595,-0.028 -0.883,-0.049 -0.63,-0.046 -1.242,-0.104 -1.847,-0.167 -0.114,-0.012 -0.233,-0.02 -0.346,-0.032 -0.693,-0.076 -1.368,-0.163 -2.026,-0.259 -0.017,-0.002 -0.034,-0.004 -0.051,-0.007 -3.385,-0.5 -6.29,-1.263 -8.561,-2.17 -0.012,-0.004 -0.024,-0.009 -0.036,-0.014 -0.419,-0.168 -0.812,-0.342 -1.186,-0.519 -0.043,-0.021 -0.089,-0.041 -0.132,-0.061 -0.336,-0.162 -0.647,-0.328 -0.945,-0.497 -0.07,-0.04 -0.144,-0.079 -0.212,-0.12 -0.259,-0.152 -0.495,-0.307 -0.721,-0.463 -0.086,-0.06 -0.175,-0.119 -0.257,-0.18 -0.191,-0.141 -0.362,-0.283 -0.526,-0.426 -0.089,-0.078 -0.179,-0.156 -0.26,-0.236 -0.134,-0.13 -0.252,-0.26 -0.363,-0.392 -0.078,-0.092 -0.153,-0.184 -0.219,-0.277 -0.088,-0.123 -0.163,-0.246 -0.231,-0.369 -0.054,-0.099 -0.102,-0.198 -0.143,-0.297 -0.049,-0.121 -0.088,-0.242 -0.116,-0.363 -0.037,-0.159 -0.078,-0.321 -0.078,-0.482 0,-0.113 0.013,-0.226 0.031,-0.338 0.025,-0.151 0.011,-0.302 -0.031,-0.445 v -7.424 c 0.12,0.109 0.257,0.216 0.387,0.324 0.072,0.06 0.139,0.12 0.215,0.18 0.3,0.236 0.624,0.469 0.975,0.696 0.073,0.047 0.155,0.093 0.231,0.14 0.294,0.183 0.605,0.362 0.932,0.538 0.121,0.065 0.242,0.129 0.367,0.193 0.365,0.186 0.748,0.367 1.151,0.542 0.066,0.029 0.126,0.059 0.193,0.087 0.469,0.199 0.967,0.389 1.485,0.573 0.143,0.051 0.293,0.099 0.44,0.149 0.412,0.139 0.838,0.272 1.279,0.401 0.159,0.046 0.315,0.094 0.478,0.138 0.585,0.162 1.189,0.316 1.823,0.458 0.087,0.02 0.181,0.036 0.269,0.055 0.559,0.122 1.139,0.235 1.735,0.341 0.202,0.036 0.407,0.07 0.613,0.104 0.567,0.093 1.151,0.178 1.75,0.256 0.154,0.02 0.301,0.043 0.457,0.062 0.744,0.09 1.514,0.167 2.305,0.233 0.195,0.016 0.398,0.028 0.596,0.042 0.633,0.046 1.28,0.084 1.942,0.114 0.241,0.011 0.481,0.022 0.727,0.031 0.862,0.029 1.74,0.05 2.65,0.05 0.91,0 1.788,-0.021 2.65,-0.05 0.245,-0.009 0.485,-0.02 0.727,-0.031 0.662,-0.03 1.309,-0.068 1.942,-0.114 0.198,-0.015 0.4,-0.026 0.596,-0.042 0.791,-0.065 1.561,-0.143 2.305,-0.233 0.156,-0.019 0.303,-0.042 0.457,-0.062 0.599,-0.078 1.182,-0.163 1.75,-0.256 0.206,-0.034 0.411,-0.068 0.613,-0.104 0.596,-0.106 1.176,-0.219 1.735,-0.341 0.088,-0.019 0.182,-0.036 0.269,-0.055 0.634,-0.142 1.238,-0.297 1.823,-0.458 0.163,-0.045 0.319,-0.092 0.478,-0.138 0.441,-0.129 0.867,-0.262 1.279,-0.401 0.147,-0.05 0.297,-0.098 0.44,-0.149 0.518,-0.184 1.017,-0.374 1.485,-0.573 0.067,-0.028 0.127,-0.058 0.193,-0.087 0.403,-0.176 0.786,-0.356 1.151,-0.542 0.125,-0.064 0.247,-0.128 0.367,-0.193 0.327,-0.175 0.638,-0.354 0.932,-0.538 0.076,-0.047 0.158,-0.093 0.231,-0.14 0.351,-0.227 0.675,-0.459 0.975,-0.696 0.075,-0.06 0.142,-0.12 0.215,-0.18 0.13,-0.108 0.267,-0.215 0.387,-0.324 z m -23,-11.2929998 c 13.555,0 23,3.952 23,7.4999998 0,3.548 -9.445,7.5 -23,7.5 -13.555,0 -23,-3.952 -23,-7.5 0,-3.5479998 9.445,-7.4999998 23,-7.4999998 z m 23,43.7029998 c -0.014,0.044 -0.024,0.089 -0.032,0.135 -0.567,3.459 -9.932,7.162 -22.968,7.162 -13.036,0 -22.401,-3.703 -22.968,-7.162 -0.008,-0.045 -0.019,-0.089 -0.032,-0.131 v -8.414 c 0.028,0.026 0.063,0.051 0.092,0.077 0.218,0.192 0.44,0.383 0.69,0.567 3.767,2.849 11.3,5.063 22.218,5.063 10.872,0 18.386,-2.196 22.169,-5.028 0.302,-0.22 0.574,-0.447 0.83,-0.678 l 10e-4,-10e-4 z"
       id="path28-8-2"
       style="font-variation-settings:normal;fill:#8238c3;fill-opacity:1;stroke:#7b2cbf;stroke-width:0.296262;stroke-linecap:butt;stroke-linejoin:miter;stroke-miterlimit:4;stroke-dasharray:none;stroke-dashoffset:0;stroke-opacity:1;stop-color:#000000;stop-opacity:1" /></g></svg>
