<?xml version="1.0" encoding="UTF-8"?>
<svg role="img" viewBox="0 0 24 24" xmlns="http://www.w3.org/2000/svg">
 <title>Bluesky</title>
 <path d="M5.43 4.265c2.66 1.997 5.52 6.05 6.57 8.218 1.05-2.173 3.912-6.221 6.572-8.218 1.919-1.441 5.028-2.556 5.028.992 0 .708-.406 5.95-.644 6.803-.828 2.958-3.846 3.714-6.53 3.257 4.692.798 5.883 3.444 3.308 6.089-4.896 5.023-7.036-1.26-7.585-2.87-.1-.296-.148-.433-.148-.316-.001-.117-.048.02-.149.316-.549 1.61-2.69 7.893-7.585 2.87-2.578-2.645-1.384-5.291 3.308-6.09-2.684.458-5.702-.298-6.53-3.256-.238-.851-.644-6.095-.644-6.803 0-3.547 3.11-2.433 5.03-.992z" fill="#1185fe"/>
</svg>
